<?xml version="1.0"?>
<svg xmlns="http://www.w3.org/2000/svg" xmlns:xlink="http://www.w3.org/1999/xlink" version="1.1" id="Capa_1" x="0px" y="0px" viewBox="0 0 512 512" style="enable-background:new 0 0 512 512;" xml:space="preserve" width="512px" height="512px"><g transform="matrix(1 0 0 1 40 0)"><g>
	<g>
		<g>
			<path d="M362.669,309.333c-17.646,0-32,14.354-32,32c0,17.646,14.354,32,32,32s32-14.354,32-32     C394.669,323.688,380.315,309.333,362.669,309.333z M362.669,352c-5.875,0-10.667-4.781-10.667-10.667     c0-5.885,4.792-10.667,10.667-10.667s10.667,4.781,10.667,10.667C373.336,347.219,368.544,352,362.669,352z" data-original="#000000" class="active-path" fill="#000000"/>
			<path d="M309.336,362.667c-17.646,0-32,14.354-32,32s14.354,32,32,32c17.646,0,32-14.354,32-32S326.982,362.667,309.336,362.667z      M309.336,405.333c-5.875,0-10.667-4.781-10.667-10.667S303.461,384,309.336,384s10.667,4.781,10.667,10.667     S315.211,405.333,309.336,405.333z" data-original="#000000" class="active-path" fill="#000000"/>
			<path d="M256.003,416c-17.646,0-32,14.354-32,32c0,17.646,14.354,32,32,32c17.646,0,32-14.354,32-32     C288.003,430.354,273.649,416,256.003,416z M256.003,458.667c-5.875,0-10.667-4.781-10.667-10.667     c0-5.885,4.792-10.667,10.667-10.667c5.875,0,10.667,4.781,10.667,10.667C266.669,453.885,261.878,458.667,256.003,458.667z" data-original="#000000" class="active-path" fill="#000000"/>
			<path d="M426.649,342.469c-0.313-15.823-9.729-44.375-10.792-47.573c-1.063-3.177-3.563-5.667-6.729-6.729     c-3.208-1.073-31.771-10.49-47.583-10.823c-0.479-0.01-0.938-0.01-1.396-0.01c-6.499,0-12.816,1.03-18.848,2.82l0.035-82.029     c0-26.854-13.917-52.125-38.208-69.323c-16.146-11.458-25.792-30.125-25.792-49.927V64c5.896,0,10.667-4.771,10.667-10.667     V10.667C288.003,4.771,283.232,0,277.336,0h-128c-5.896,0-10.667,4.771-10.667,10.667v42.667c0,5.896,4.771,10.667,10.667,10.667     v15.208c0,19.833-10.646,38.76-29.208,51.938c-21.792,15.448-34.792,40.615-34.792,67.313v270.875     c0,23.531,19.146,42.667,42.688,42.667l170.625-0.302c23.479-0.042,42.583-19.177,42.583-42.656v-16.409     c13.706-7.556,24.611-19.506,30.25-34.31c2.188-5.729,6.458-10.125,11.708-12.073     C409.774,396.396,427.253,370.76,426.649,342.469z M160.003,21.333h106.667v21.333H160.003V21.333z M132.461,148.542     c24.292-17.229,38.208-42.5,38.208-69.333V64h85.333v14.875c0,26.708,13,51.875,34.792,67.333     c18.563,13.146,29.208,32.073,29.208,51.917l-0.001,4.422c-50.405-0.605-77.03-5.328-104.749-10.37     c-26.99-4.91-55.126-9.917-105.914-10.688C113.157,168.372,121.074,156.622,132.461,148.542z M192.024,446.865     c0.258,13.061,6.608,34.678,9.423,43.672l-73.444,0.13c-11.771,0-21.333-9.573-21.333-21.333V202.786     c50.408,0.605,77.031,5.328,104.75,10.37c27.453,4.995,56.105,10.086,108.573,10.719l-0.029,67.189     c-9.832,7.484-17.714,17.6-22.211,29.738c-1.979,5.344-6.271,9.5-12.063,11.708c-17.708,6.74-31.75,20.781-38.5,38.5     c-2.188,5.729-6.458,10.125-11.708,12.073C208.899,392.938,191.42,418.573,192.024,446.865z M311.525,485.54     c3.1-4.094,5.643-8.643,7.76-13.467C318.464,477.569,315.71,482.251,311.525,485.54z M375.774,386.25     c-11,4.083-19.813,12.99-24.208,24.458c-4.604,12.052-14.146,21.594-26.167,26.177c-11.458,4.365-20.375,13.198-24.479,24.229     c-6.48,17.503-23.371,29.211-41.62,29.319l-3.65,0.007c-9.24-0.664-24.822-4.878-34.314-7.773     c-3.083-10.104-7.813-27.344-7.979-36.24c-0.417-19.229,11.458-36.646,29.542-43.344c11-4.083,19.812-12.99,24.208-24.458     c4.604-12.052,14.146-21.594,26.167-26.177c11.458-4.365,20.375-13.198,24.479-24.229c6.708-18.063,23.917-29.833,43.333-29.542     c8.875,0.177,26.104,4.969,36.167,8.083c3.104,10.063,7.896,27.271,8.063,36.146C405.732,362.135,393.857,379.552,375.774,386.25     z" data-original="#000000" class="active-path" fill="#000000"/>
		</g>
	</g>
</g></g> </svg>
