<?xml version="1.0"?>
<svg xmlns="http://www.w3.org/2000/svg" xmlns:xlink="http://www.w3.org/1999/xlink" version="1.1" id="Layer_1" x="0px" y="0px" viewBox="0 0 512 512" style="enable-background:new 0 0 512 512;" xml:space="preserve" width="512px" height="512px" class=""><g><g>
	<g>
		<path d="M507.201,84.407c-4.634-7.428-11.913-12.488-20.494-14.247c-8.586-1.762-17.274,0.03-24.471,5.044l-34.52,24.094    c-3.397,2.371-4.229,7.046-1.857,10.443c2.37,3.395,7.045,4.229,10.443,1.857l34.515-24.091c3.785-2.638,8.359-3.58,12.877-2.653    c4.515,0.925,8.343,3.586,10.779,7.491c1.653,2.651,2.526,5.683,2.526,8.771c0,6.06-3.294,11.642-8.599,14.569l-134.363,74.223    l-5.969-16.523c-0.019-0.054-0.046-0.103-0.066-0.156l57.906-40.418c3.396-2.37,4.228-7.046,1.857-10.442    c-2.372-3.396-7.045-4.227-10.443-1.857l-60.656,42.337c-3.265-0.91-6.827-0.865-10.249,0.37l-19.038,6.869    c-20.992,7.573-41.09,17.073-60.124,28.403c-8.484-6.478-20.342-10.113-33.542-10.113c-0.033,0-0.069,0-0.102,0    c-12.757,0.017-25.792,3.375-35.761,9.212c-11.599,6.791-17.979,16.078-17.965,26.148c0.01,10.192,6.793,19.648,18.312,26.261    l-9.121,7.459c-5.748-7.464-14.374-13.62-25.09-17.766c-11.899-4.603-25.265-6.196-36.669-4.366    c-13.272,2.128-22.583,8.473-26.216,17.866c-7.045,18.213,10.26,39.476,32.078,49.978l-2.669,2.183    c-9.073-9.533-24.252-14.16-41.76-12.313c-25.826,2.718-51.996,19.725-49.793,40.712c1.191,11.345,10.753,20.836,25.13,25.92    l-24.595,20.114C6.098,390.738-1.134,407.582,0.145,424.842c0.444,5.994,3.592,11.308,8.635,14.578    c3.145,2.039,6.714,3.081,10.327,3.08c2.178,0,4.372-0.378,6.498-1.146l125.631-45.325c3.896-1.406,5.915-5.703,4.509-9.6    c-1.406-3.896-5.705-5.916-9.6-4.509L20.513,427.246c-1.642,0.593-2.943-0.002-3.573-0.411s-1.707-1.355-1.836-3.102    c-0.918-12.387,4.272-24.476,13.885-32.338l185.259-151.5c29.42-24.059,62.467-42.799,98.224-55.699l19.037-6.868    c0.995-0.358,2.093,0.16,2.453,1.153l12.499,34.601c8.244,22.82,7.102,47.483-3.216,69.445    c-10.318,21.963-28.578,38.596-51.415,46.835L184.151,368.21c-3.896,1.406-5.915,5.703-4.509,9.6    c1.405,3.896,5.704,5.915,9.6,4.509l107.679-38.848c26.606-9.599,47.879-28.977,59.901-54.566    c12.022-25.59,13.353-54.327,3.747-80.918l-1.37-3.793l136.453-75.377c10.084-5.565,16.348-16.179,16.348-27.7    C512,95.22,510.341,89.443,507.201,84.407z M58.52,347.869c-6.598-1.057-12.443-3.14-16.788-5.813    c8.899-0.006,20.084-1.454,30.611-6.896c1.266-0.655,2.553-1.231,3.848-1.741L58.52,347.869z M98.738,314.98    c-9.24-0.286-21.668,0.848-33.285,6.856c-10.786,5.576-22.979,5.598-30.387,4.888c4.084-8.138,17.918-16.944,35.259-18.768    c12.026-1.272,22.487,1.407,28.489,6.962L98.738,314.98z M126.369,292.384c-0.801-0.27-1.607-0.556-2.418-0.869    c-12.378-4.788-21.733-12.948-26.301-20.508c7.873,4.022,18.386,7.798,30.133,7.798c0.06,0,0.121,0,0.181,0    c4.136-0.013,8.386,0.632,12.712,1.879L126.369,292.384z M154.15,269.665c-8.78-3.886-17.527-5.859-26.067-5.859    c-0.1,0-0.2,0-0.298,0c-12.114,0-22.935-5.537-29.174-9.537c2.62-1.946,6.412-3.386,11.082-4.134    c8.861-1.421,19.388-0.128,28.882,3.545c8.213,3.178,14.814,7.876,18.871,13.29L154.15,269.665z M190.958,239.563    c-3.62-1.494-6.773-3.272-9.299-5.217c2.525,0.261,5.246,0.426,8.104,0.426c2.431,0,4.965-0.131,7.554-0.409L190.958,239.563z     M225.266,212.752c-6.402,0.465-12.418,1.782-17.906,3.936c-11.321,4.441-23.472,3.193-30.762,1.719    c1.737-2.767,4.751-5.484,8.834-7.874c7.744-4.535,18.023-7.143,28.203-7.156c0.028,0,0.055,0,0.083,0    c7.412,0,14.111,1.403,19.459,3.974C230.516,209.112,227.881,210.916,225.266,212.752z" data-original="#000000" class="active-path" data-old_color="#000000" fill="#000000"/>
	</g>
</g><g>
	<g>
		<path d="M77.783,162.098c-12.609-1.954-26.005-0.65-36.756,3.575c-12.511,4.916-20.25,13.106-21.79,23.06    c-3.229,20.856,22.083,39.123,47.75,43.099c3.64,0.564,7.194,0.844,10.633,0.844c8.673,0,16.614-1.781,23.355-5.282    c9.813-5.096,16.062-13.362,17.596-23.275C121.698,183.916,104.545,166.244,77.783,162.098z M46.513,179.632    c5.757-2.262,12.563-3.435,19.531-3.435c3.142,0,6.316,0.238,9.442,0.723c11.969,1.854,21.362,7.267,25.74,14.07    c-8.902-2.656-21.224-4.732-33.992-1.892c-11.877,2.64-23.691-0.472-30.665-3.056C38.713,183.58,42.11,181.363,46.513,179.632z     M94.061,214.083c-6.471,3.36-15.27,4.399-24.778,2.927c-13.114-2.031-23.996-8.003-30.073-14.412    c8.595,2.258,19.742,3.705,31.279,1.142c12.264-2.725,24.5,0.687,31.393,3.315C99.874,210.457,96.74,212.691,94.061,214.083z" data-original="#000000" class="active-path" data-old_color="#000000" fill="#000000"/>
	</g>
</g><g>
	<g>
		<path d="M258.718,121.16c-5.168-11.668-13.501-22.242-22.863-29.009c-10.896-7.878-21.967-9.967-31.175-5.885    c-19.289,8.55-20.981,39.726-10.46,63.479c5.255,11.866,12.896,20.929,22.094,26.213c5.554,3.19,11.354,4.799,17.036,4.799    c4.129,0,8.195-0.851,12.054-2.561C264.088,169.913,269.687,145.926,258.718,121.16z M223.786,162.952    c-6.323-3.632-11.952-10.479-15.851-19.28c-5.374-12.133-6.232-24.516-4.129-33.095c2.744,8.454,7.548,18.614,15.935,26.938    c8.92,8.853,12.661,21,14.174,28.223C229.971,165.885,226.402,164.454,223.786,162.952z M247.078,156.503    c-2.576-8.927-7.486-20.418-16.769-29.633c-8.633-8.569-12.4-20.191-13.996-27.461c3.227,0.476,6.922,2.127,10.754,4.898    c7.274,5.258,13.811,13.616,17.936,22.928C249.909,138.312,250.432,149.142,247.078,156.503z" data-original="#000000" class="active-path" data-old_color="#000000" fill="#000000"/>
	</g>
</g><g>
	<g>
		<path d="M157.606,112.122c-2.479-3.317-7.179-3.996-10.498-1.517c-3.317,2.479-3.997,7.179-1.517,10.497    c4.545,6.081,6.844,12.378,6.823,17.918c-6.066-7.042-15.331-15.451-27.629-19.954c-11.416-4.18-19.685-13.163-24.169-19.102    c4.504-1.302,10.875-0.8,17.795,1.582c3.917,1.349,8.185-0.733,9.533-4.649c1.349-3.916-0.733-8.184-4.649-9.533    c-16.271-5.602-30.753-3.544-38.739,5.507c-13.96,15.823-2.488,44.86,16.984,62.051c9.726,8.587,20.452,13.634,31.016,14.594    c1.21,0.11,2.403,0.165,3.579,0.165c9.53,0,17.881-3.582,23.788-10.278C170.783,147.094,169.873,128.534,157.606,112.122z     M133.914,154.579c-7.261-0.66-15.232-4.531-22.446-10.9c-9.947-8.782-15.893-19.678-17.56-28.352    c6.021,6.535,14.626,13.762,25.721,17.824c11.8,4.32,20.267,13.796,24.655,19.728C140.761,154.66,136.919,154.851,133.914,154.579    z" data-original="#000000" class="active-path" data-old_color="#000000" fill="#000000"/>
	</g>
</g></g> </svg>
