<?xml version="1.0"?>
<svg xmlns="http://www.w3.org/2000/svg" xmlns:xlink="http://www.w3.org/1999/xlink" version="1.1" id="Capa_1" x="0px" y="0px" viewBox="0 0 472.504 472.504" style="enable-background:new 0 0 472.504 472.504;" xml:space="preserve" width="512px" height="512px" class=""><g><g transform="matrix(-1 2.44929e-16 2.44929e-16 1 472.504 -2.84217e-14)"><path d="M397.157,391.551L167.39,161.785c-7.498-7.498-11.571-17.488-11.471-28.129c0.102-10.636,4.368-20.548,12.016-27.911  c15.291-14.721,40.209-14.218,55.545,1.119l14.396,14.395c8.956,8.957,20.865,13.889,33.532,13.889  c12.666,0,24.575-4.933,33.531-13.889c8.957-8.957,13.89-20.865,13.89-33.532c0-12.667-4.933-24.575-13.89-33.531l-14.979-14.98  C264.661,13.917,231.007,0,195.153,0c-0.132,0-0.267,0-0.398,0.001c-35.998,0.104-69.729,14.228-94.979,39.771  c-51.678,52.275-50.997,137.528,1.518,190.041l228.801,228.802c8.957,8.957,20.865,13.889,33.532,13.889  c12.666,0,24.575-4.933,33.531-13.889c8.957-8.957,13.89-20.865,13.89-33.532S406.114,400.508,397.157,391.551z M384.225,406.994  h-77.468l-17.548-17.548h77.557l16.249,16.249C383.435,406.115,383.835,406.551,384.225,406.994z M246.865,269.544h-77.556  l-42.352-42.353h77.556L246.865,269.544z M266.865,289.544l17.548,17.548h-77.556l-17.548-17.548H266.865z M304.413,327.093  l42.353,42.353h-77.556l-42.353-42.353H304.413z M84.895,105.588l51.039,28.746c0.061,12.926,4.209,25.18,11.859,35.311  l-60.631-0.005C80.391,148.867,79.63,126.586,84.895,105.588z M139.574,113.43L91.577,86.397c2.397-5.289,5.225-10.422,8.474-15.354  l47.992,27.033C144.443,102.773,141.6,107.94,139.574,113.43z M206.356,76.173l-10.563-56.165  c6.136,0.033,12.193,0.547,18.131,1.521l11.636,61.868C219.544,79.862,213.036,77.456,206.356,76.173z M290.797,68.338  c5.18,5.179,8.032,12.065,8.032,19.389c0,7.324-2.853,14.21-8.032,19.39c-5.179,5.179-12.064,8.031-19.389,8.031  c-7.325,0-14.211-2.852-19.39-8.031l-2.026-2.026l-14.643-77.855c15.025,5.632,28.795,14.449,40.468,26.122L290.797,68.338z   M175.747,21.632l10.177,54.115c-7.818,1.171-15.421,3.879-22.296,8.153l-50.95-28.7c0.438-0.458,0.872-0.917,1.319-1.369  C130.95,36.684,152.4,25.593,175.747,21.632z M95.849,189.64l71.118,0.006l17.546,17.546h-76.763  C103.189,201.64,99.224,195.76,95.849,189.64z M383.014,444.473c-5.179,5.179-12.064,8.031-19.389,8.031s-14.211-2.853-19.39-8.032  l-17.479-17.479h64.216C390.521,433.598,387.741,439.746,383.014,444.473C383.014,444.472,383.014,444.472,383.014,444.473z" data-original="#FFFFFF" class="active-path" data-old_color="#FFFFFF" fill="#000000"/></g></g> </svg>
