<?xml version="1.0"?>
<svg xmlns="http://www.w3.org/2000/svg" id="Capa_1" enable-background="new 0 0 511.992 511.992" height="512px" viewBox="0 0 511.992 511.992" width="512px" class=""><g><path id="XMLID_1196_" d="m399.467 190.999c0-20.634-13.36-38.195-31.88-44.52 5.578-7.368 8.894-16.539 8.894-26.472 0-23.654-18.785-42.993-42.219-43.906 2.738-5.188 4.297-11.091 4.297-17.354 0-20.573-16.737-37.31-37.31-37.31h-46.615c-3.065 0-4.878-1.742-5.687-2.781-.808-1.039-2.05-3.225-1.296-6.196.759-2.991.095-6.165-1.799-8.6s-4.808-3.86-7.894-3.86h-16.496c-26.483 0-48.029 21.545-48.029 48.028 0 10.456 3.369 20.134 9.063 28.029h-3.035c-24.234 0-43.95 19.716-43.95 43.95 0 9.933 3.316 19.104 8.894 26.472-18.52 6.325-31.88 23.886-31.88 44.52 0 16.859 8.919 31.667 22.282 39.974-4.257 7.096-4.987 15.777-1.908 23.521l94.762 238.274c4.645 11.678 15.766 19.224 28.334 19.224s23.689-7.546 28.334-19.224l94.762-238.274c3.08-7.744 2.349-16.425-1.908-23.521 13.364-8.306 22.284-23.115 22.284-39.974zm-206.033-142.971c0-15.455 12.574-28.028 28.029-28.028h6.565c.85 3.921 2.58 7.653 5.134 10.936 5.191 6.674 13.018 10.501 21.473 10.501h46.615c9.545 0 17.31 7.765 17.31 17.31s-7.765 17.31-17.31 17.31h-79.786c-15.457 0-28.03-12.574-28.03-28.029zm30.088 190.013 43.123 43.123-39.947 39.946-75.622-75.622c-.285-2.165.602-3.84 1.08-4.545.592-.873 2.311-2.902 5.476-2.902h1.934zm28.286 0h57.961l-28.981 28.98zm-49.817 136.061 24.707-24.707 39.946 39.946-41.921 41.921zm-32.628-82.043 43.193 43.193-18.613 18.613zm111.425 83.139-39.946-39.946 39.946-39.946 39.946 39.946zm-15.042 110.179c-2.441 6.138-8.08 6.615-9.75 6.615s-7.309-.477-9.75-6.615l-13.474-33.879 77.117-77.117zm88.613-247.336c3.165 0 4.884 2.03 5.476 2.902.592.873 1.843 3.219.673 6.16l-28.351 71.287-37.227-37.227 43.123-43.123h14.373 1.933zm-1.934-20h-192.858c-14.911 0-27.042-12.131-27.042-27.042s12.131-27.041 27.042-27.041h51.556c5.523 0 10-4.477 10-10s-4.477-10-10-10h-31.661c-13.206 0-23.95-10.744-23.95-23.951 0-13.206 10.744-23.95 23.95-23.95h42 79.786 31.282c13.206 0 23.95 10.744 23.95 23.95 0 13.207-10.744 23.951-23.95 23.951h-31.407c-5.523 0-10 4.477-10 10s4.477 10 10 10h51.302c14.911 0 27.042 12.131 27.042 27.042s-12.131 27.041-27.042 27.041z" data-original="#000000" class="active-path" data-old_color="#000000" fill="#000000"/><path id="XMLID_1270_" d="m256.126 143.956c-2.64 0-5.21 1.07-7.07 2.93-1.87 1.86-2.93 4.44-2.93 7.07 0 2.64 1.06 5.21 2.93 7.07 1.86 1.86 4.43 2.93 7.07 2.93 2.63 0 5.21-1.07 7.07-2.93s2.93-4.43 2.93-7.07c0-2.63-1.07-5.21-2.93-7.07s-4.44-2.93-7.07-2.93z" data-original="#000000" class="active-path" data-old_color="#000000" fill="#000000"/></g> </svg>
