<?xml version="1.0"?>
<svg xmlns="http://www.w3.org/2000/svg" id="Capa_1" enable-background="new 0 0 512 512" height="512px" viewBox="0 0 512 512" width="512px"><g><g><path d="m328.982 157.631v-5.897c5.675-2.138 9.719-7.603 9.719-14.025v-53.709c0-16.561-13.473-30.034-30.034-30.034h-7.667v-8.966c0-24.813-20.187-45-45-45s-45 20.187-45 45v8.966h-7.667c-16.561 0-30.034 13.473-30.034 30.034v53.708c0 6.423 4.044 11.887 9.719 14.025v5.897c-28.923 12.579-48.283 41.393-48.283 73.654v240.382c0 22.239 18.093 40.333 40.333 40.333h161.864c22.239 0 40.333-18.093 40.333-40.333v-240.381c0-32.261-19.36-61.076-48.283-73.654zm-164.247 89.262h182.529v169.189h-182.529zm76.265-201.893c0-8.271 6.729-15 15-15s15 6.729 15 15v8.966h-30zm-37.667 38.966 105.368.034v38.708h-105.392zm-1.413 98.749c6.548-1.764 11.098-7.702 11.098-14.483v-15.523h85.964v15.523c0 6.781 4.55 12.719 11.098 14.483 17.103 4.608 30.176 17.804 35.079 34.178h-178.318c4.904-16.374 17.977-29.57 35.079-34.178zm135.012 299.285h-161.864c-5.697 0-10.333-4.635-10.333-10.333v-25.585h182.529v25.585c.001 5.698-4.635 10.333-10.332 10.333z" data-original="#000000" class="active-path" fill="#000000"/><path d="m310.494 276.015c-6.133-.679-37.404-3.191-54.494 13.414-17.09-16.605-48.358-14.092-54.494-13.414-6.977.773-12.485 6.281-13.257 13.257-.685 6.179-3.237 37.864 13.768 54.869 9.613 9.613 21.121 14.493 32.154 14.493 2.209 0 4.398-.204 6.55-.596v14.398c0 8.284 6.716 15 15 15s15-6.716 15-15v-14.498c2.331.464 4.709.697 7.109.697 11.032 0 22.542-4.881 32.154-14.493 17.005-17.004 14.452-48.689 13.768-54.869-.773-6.977-6.281-12.485-13.258-13.258zm-87.265 46.913c-2.989-2.989-4.62-9.982-5.219-17.15 7.147.607 14.178 2.243 17.151 5.217 4.642 4.642 8.035 11.17 3.636 15.569-4.4 4.398-10.926 1.006-15.568-3.636zm65.542 0c-4.642 4.641-11.169 8.033-15.569 3.636-4.399-4.399-1.006-10.927 3.636-15.568 2.989-2.989 9.982-4.62 17.151-5.219-.609 7.147-2.245 14.177-5.218 17.151z" data-original="#000000" class="active-path" fill="#000000"/></g></g> </svg>
