<?xml version="1.0"?>
<svg xmlns="http://www.w3.org/2000/svg" height="512px" viewBox="-14 0 512 512.00085" width="512px"><g><path d="m209.609375 367.820312c0-3.984374-3.230469-7.21875-7.214844-7.21875s-7.214843 3.230469-7.214843 7.21875c0 3.984376 3.230468 7.214844 7.214843 7.214844s7.214844-3.230468 7.214844-7.214844zm-37.109375-43.765624c0-3.984376-3.230469-7.214844-7.214844-7.214844s-7.214844 3.230468-7.214844 7.214844c0 3.984374 3.230469 7.214843 7.214844 7.214843s7.214844-3.230469 7.214844-7.214843zm298.660156-278.394532c-8.976562-10.597656-21.472656-21.097656-35.191406-29.558594-22.785156-14.054687-43.308594-19.339843-54.894531-14.140624-4.824219 2.164062-8.039063 6.09375-9.171875 11.09375-.074219.265624-.140625.535156-.191406.8125l-12.910157 73.226562c-1.347656 7.625-4.035156 14.867188-7.992187 21.523438-2.027344 3.410156-2.480469 7.5-1.3125 11.234374-2.375 3.105469-3.347656 7.101563-2.609375 11 1.445312 7.609376 1.492187 15.335938.148437 22.960938l-9.734375 55.199219-2.15625-12.234375c-1.34375-7.628906-1.296875-15.355469.148438-22.964844.738281-3.894531-.234375-7.890625-2.609375-11 1.167968-3.734375.714844-7.820312-1.3125-11.230469-3.957032-6.660156-6.648438-13.902343-7.992188-21.527343l-12.582031-71.367188c-.050781-.277344-.117187-.550781-.195313-.816406-1.132812-5-4.34375-8.925782-9.167968-11.089844-11.585938-5.199219-32.109375.085938-54.898438 14.140625-13.71875 8.460937-26.214844 18.960937-35.1875 29.558594-7.035156 8.308593-15.019531 20.457031-13.136718 31.140625l5.214843 29.585937c1.347657 7.625 1.296875 15.351563-.144531 22.960938-.738281 3.898437.234375 7.894531 2.605469 11.003906-1.167969 3.734375-.710938 7.820313 1.316406 11.230469 3.957031 6.65625 6.644531 13.898437 7.988281 21.527344l13.984375 79.300781-13.609375-17.179688c-10.484375-13.234375-26.179687-20.828125-43.066406-20.828125-16.882812 0-32.582031 7.59375-43.066406 20.828125l-32.441406 40.957031c-31.875 40.238282-58.96875 84.269532-80.527344 130.859376l-14.589844 31.539062c-2.902344 6.265625-2.410156 13.480469 1.308594 19.300781 3.71875 5.820313 10.0625 9.292969 16.964844 9.292969h13.023437c4.144531 0 7.5-3.355469 7.5-7.5s-3.355469-7.5-7.5-7.5h-13.023437c-2.539063 0-3.871094-1.660156-4.328126-2.371094-.457031-.710937-1.402343-2.617187-.332031-4.921875l14.589844-31.539062c21.0625-45.519531 47.53125-88.535157 78.671875-127.847657l32.441406-40.957031c7.621094-9.621093 19.035156-15.140625 31.308594-15.140625 12.277344 0 23.6875 5.519532 31.308594 15.140625l32.445312 40.957031c1.546875 1.957032 3.074219 3.929688 4.601563 5.902344.019531.023438.039062.046875.054687.074219 29.125 37.683594 54.011719 78.640625 74.011719 121.871094l7.292969 15.757812c.007812.019531.015625.035157.023437.054688l7.277344 15.726562c1.066406 2.304688.121094 4.210938-.335937 4.921875-.453126.714844-1.789063 2.371094-4.328126 2.371094h-257.351562c-4.144531 0-7.5 3.359375-7.5 7.5 0 4.144531 3.355469 7.5 7.5 7.5h257.351562c6.90625 0 13.25-3.472656 16.96875-9.292969 3.71875-5.816406 4.210938-13.03125 1.308594-19.300781l-3.226562-6.980469 34.496094-6.082031c4.492187-.789062 8.304687-3.738281 10.207031-7.878906 1.898437-4.144532 1.640625-8.957032-.6875-12.878906-1.832031-3.078126-3.378907-6.289063-4.660157-9.601563l31.050782 5.476563c.804687.140624 1.609375.210937 2.40625.210937 3.679687 0 7.25-1.464844 9.878906-4.132813 3.203125-3.242187 4.605469-7.851562 3.757812-12.328124-1.441406-7.609376-1.492187-15.335938-.148437-22.960938l14.511719-82.28125c1.34375-7.628906 4.03125-14.871094 7.992187-21.527344 2.023438-3.410156 2.480469-7.496094 1.3125-11.230468 2.371094-3.109376 3.347657-7.105469 2.605469-11.003907-1.441406-7.609375-1.492188-15.335937-.144531-22.960937l6.601562-37.4375c.71875-4.082032-2.003906-7.96875-6.085937-8.6875-4.074219-.726563-7.96875 2.003906-8.6875 6.082031l-6.601563 37.4375c-1.566406 8.890625-1.597656 17.886719-.101562 26.765625l-90.347657-15.929688-2.773437-15.730468c1.207031-3.636719 2.160156-7.339844 2.8125-11.042969l14.511719-82.28125c1.566406-8.886719 1.597656-17.882813.097656-26.765625l99.367188 17.523438c-4.445313 7.832031-7.492188 16.296874-9.058594 25.183593l-1.742188 9.878907c-.71875 4.082031 2.003906 7.972656 6.082032 8.691406.441406.078125.878906.113281 1.3125.113281 3.570312 0 6.734374-2.558594 7.378906-6.199219l1.742187-9.878906c1.34375-7.628906 4.03125-14.871094 7.992188-21.527344 2.027343-3.410156 2.480469-7.496094 1.3125-11.230468 2.371093-3.109376 3.34375-7.105469 2.605469-11.003907-1.441407-7.609375-1.492188-15.335937-.144532-22.960937l5.542969-31.441406v-.003907c1.878906-10.691406-6.105469-22.832031-13.136719-31.140625zm-257.445312 74.179688c-.636719-.28125-.660156-.417969-.730469-.824219-1.28125-7.269531 14.21875-28.542969 41.429687-45.324219 21.582032-13.3125 36.527344-15.183594 40.878907-13.226562.636719.285156.660156.421875.730469.824218v.003907c1.28125 7.273437-14.222657 28.546875-41.429688 45.324219-21.582031 13.316406-36.527344 15.179687-40.878906 13.222656zm4.484375 28.761718-2.324219-13.183593c.691406.039062 1.386719.070312 2.109375.070312 11.710937 0 27.464844-5.605469 44.484375-16.101562 13.71875-8.460938 26.214844-18.960938 35.191406-29.558594.917969-1.089844 1.859375-2.246094 2.785156-3.453125l8.164063 46.285156c1.566406 8.886719 4.609375 17.351563 9.054687 25.1875l-99.359374 17.519532c1.496093-8.882813 1.464843-17.878907-.105469-26.765626zm29.8125 172.40625-2.621094-3.3125c.550781-6.738281.25-13.480468-.917969-20.09375l-14.507812-82.277343c-1.566406-8.890625-4.613282-17.355469-9.058594-25.1875l99.367188-17.519531c-1.5 8.878906-1.464844 17.875.101562 26.765624l14.507812 82.28125c1.566407 8.886719 4.613282 17.351563 9.058594 25.183594l-94.039062 16.582032c-.632813-.804688-1.257813-1.617188-1.890625-2.421876zm186.984375-24.832031c-4.441406 7.832031-7.488282 16.300781-9.054688 25.1875l-14.507812 82.28125c-1.566406 8.886719-1.601563 17.882813-.105469 26.765625l-36.113281-6.371094-13.796875-78.257812c-1.34375-7.628906-1.296875-15.351562.144531-22.960938.742188-3.898437-.230469-7.894531-2.605469-11.003906 1.167969-3.734375.714844-7.820312-1.3125-11.234375-3.582031-6.027343-6.117187-12.539062-7.5625-19.378906zm-88.453125 25.445313c-1.5 8.882812-1.464844 17.875.105469 26.765625l14.507812 82.277343c1.566406 8.890626 4.609375 17.355469 9.054688 25.1875l-36.828126 6.492188-4.84375-10.476562c-18.765624-40.550782-41.726562-79.15625-68.375-115.015626zm117.4375-215.984375c-1.566407 8.890625-1.601563 17.882812-.105469 26.765625l-99.359375-17.519532c4.445313-7.835937 7.488281-16.300781 9.054687-25.1875l8.492188-48.140624c.925781 1.207031 1.867188 2.363281 2.785156 3.453124 8.976563 10.601563 21.472656 21.097657 35.191406 29.558594 17.019532 10.496094 32.773438 16.101563 44.484376 16.101563.722656 0 1.421874-.027344 2.109374-.070313zm5.542969-31.441407v.019532c-.070313.390625-.105469.527344-.730469.808594-4.351563 1.953124-19.296875.089843-40.878907-13.226563-27.210937-16.777344-42.710937-38.050781-41.429687-45.324219.070313-.402344.09375-.539062.730469-.824218.917968-.414063 2.308594-.65625 4.136718-.65625 6.824219 0 19.71875 3.378906 36.742188 13.878906 27.207031 16.777344 42.707031 38.050781 41.429688 45.324218zm-225.621094 382.09375c0-3.984374-3.230469-7.214843-7.214844-7.214843s-7.214844 3.230469-7.214844 7.214843c0 3.988282 3.230469 7.21875 7.214844 7.21875s7.214844-3.230468 7.214844-7.21875zm-167.1875 15.339844c0-3.984375-3.230469-7.214844-7.214844-7.214844s-7.214844 3.230469-7.214844 7.214844 3.230469 7.214844 7.214844 7.214844 7.214844-3.230469 7.214844-7.214844zm27.179687-66.917968c0-3.984376-3.230469-7.214844-7.214843-7.214844-3.984376 0-7.214844 3.230468-7.214844 7.214844 0 3.984374 3.230468 7.214843 7.214844 7.214843 3.984374 0 7.214843-3.230469 7.214843-7.214843zm30.347657 44.367187c0-3.984375-3.230469-7.214844-7.214844-7.214844s-7.214844 3.230469-7.214844 7.214844 3.230469 7.214844 7.214844 7.214844c3.984375-.003907 7.214844-3.230469 7.214844-7.214844zm0 0" data-original="#000000" class="active-path" fill="#000000"/></g> </svg>
