<?xml version="1.0"?>
<svg xmlns="http://www.w3.org/2000/svg" id="Capa_1" enable-background="new 0 0 552.47 552.47" height="512px" viewBox="0 0 552.47 552.47" width="512px"><g><path d="m276.235 0c-109.995 0-276.235 0-276.235 220.749 0 237.845 259.712 327.153 270.773 330.828 1.787.607 3.625.894 5.463.894 2.647 0 5.294-.607 7.722-1.821l8.497-4.097c172.529-82.227 260.015-191.834 260.015-325.804 0-220.749-166.24-220.749-276.235-220.749zm190.997 76.646c-43.322 9.939-126.748 26.942-190.997 26.942-72.127 0-133.7-14.264-183.185-25.728-2.59-.603-4.771-1.045-7.3-1.631 47.817-41.421 121.837-41.699 190.485-41.699 68.888 0 143.197.257 190.997 42.116zm-189.631 438.734-2.377 1.146c-39.774-14.836-240.695-99.474-240.695-295.776 0-51.107 9.918-87.813 26.295-114.718 7.973 1.76 15.76 3.456 24.437 5.465 51.187 11.853 114.884 26.622 190.974 26.622 78.328 0 179.775-22.999 215.608-31.771 16.259 26.877 26.097 63.497 26.097 114.402.001 119.504-80.86 218.625-240.339 294.63z" data-original="#000000" class="active-path" data-old_color="#000000" fill="#FFFFFF"/></g> </svg>
