<?xml version="1.0"?>
<svg xmlns="http://www.w3.org/2000/svg" height="512px" viewBox="0 0 128 128" width="512px"><g><g><path d="m123.1 41.46a7.691 7.691 0 0 0 -2.268-5.477l-28.814-28.81a7.75 7.75 0 0 0 -10.956 0l-22.482 22.482-.5-.5a1.752 1.752 0 0 0 -2.474 0l-42.13 42.114-7.746 3.793a1.749 1.749 0 0 0 -.467 2.808l44.866 44.867a1.75 1.75 0 0 0 1.238.513 1.851 1.851 0 0 0 .287-.023 1.752 1.752 0 0 0 1.284-.957l3.794-7.747 23.741-23.741.17.4a1.751 1.751 0 0 0 1.375 1.052 1.712 1.712 0 0 0 .236.016 1.751 1.751 0 0 0 1.371-.661l15.312-19.276a1.75 1.75 0 0 0 -.08-2.39l-.507-.508 22.477-22.477a7.7 7.7 0 0 0 2.273-5.478zm-72.228 77.07-41.4-41.4 4.689-2.3 39.01 39.011zm4.419-7.515-38.306-38.306 39.254-39.244 22.761 53.835zm27.427-23.915-20.776-49.134 1.363 1.363.008.009.01.008 10.413 10.411c.006.006.011.014.017.02s.014.011.02.017l4.427 4.427c.008.008.014.018.022.026s.018.013.026.021l16.346 16.342c.014.015.024.033.039.047s.032.025.047.039l.6.6zm-15.693-49 3.665-3.671 7.966 7.971-3.664 3.664zm14.912 14.907 3.663-3.663 7.973 7.967-3.665 3.666zm36.416-8.544-22.478 22.478-3.491-3.49 4.9-4.9a1.749 1.749 0 0 0 0-2.475l-10.45-10.44a1.749 1.749 0 0 0 -2.474 0l-4.9 4.9-2-2 4.9-4.9a1.75 1.75 0 0 0 0-2.474l-10.44-10.45a1.8 1.8 0 0 0 -2.476 0l-4.9 4.909-3.489-3.491 22.482-22.483a4.25 4.25 0 0 1 6 0l28.811 28.811a4.25 4.25 0 0 1 0 6.005z" data-original="#000000" class="active-path" data-old_color="#000000" fill="#FFFFFF"/><path d="m102.689 29.78a1.75 1.75 0 0 0 -2.474 0l-10.443 10.443a1.749 1.749 0 0 0 0 2.475l10.443 10.443a1.748 1.748 0 0 0 2.474 0l10.444-10.441a1.749 1.749 0 0 0 0-2.475zm-1.237 19.649-7.968-7.969 7.968-7.968 7.968 7.968z" data-original="#000000" class="active-path" data-old_color="#000000" fill="#FFFFFF"/><path d="m98.22 25.311-10.443-10.444a1.8 1.8 0 0 0 -2.475 0l-10.443 10.444a1.748 1.748 0 0 0 0 2.474l10.441 10.443a1.749 1.749 0 0 0 2.475 0l10.445-10.443a1.75 1.75 0 0 0 0-2.474zm-11.68 9.2-7.969-7.968 7.969-7.963 7.968 7.968z" data-original="#000000" class="active-path" data-old_color="#000000" fill="#FFFFFF"/><path d="m35.179 58.054-5.521 5.521a1.75 1.75 0 1 0 2.474 2.475l5.522-5.522a1.75 1.75 0 0 0 -2.475-2.474z" data-original="#000000" class="active-path" data-old_color="#000000" fill="#FFFFFF"/></g></g> </svg>
