<?xml version="1.0"?>
<svg xmlns="http://www.w3.org/2000/svg" xmlns:xlink="http://www.w3.org/1999/xlink" version="1.1" id="Capa_1" x="0px" y="0px" viewBox="0 0 479.994 479.994" style="enable-background:new 0 0 479.994 479.994;" xml:space="preserve" width="512px" height="512px" class=""><g><g>
	<g>
		<path d="M461.226,92.092l-79.152-79.2c-7.474-7.538-19.028-9.233-28.352-4.16l-10.16,5.464c-2.504,1.352-4.936,2.816-7.368,4.28    l-3.136,1.888c-3.806,2.243-5.074,7.148-2.83,10.954c0.342,0.58,0.755,1.114,1.23,1.59l17.224,17.256l-8.688,8.688l-21.488-21.488    c-2.782-2.76-7.154-3.099-10.328-0.8c-10.257,7.394-20.071,15.384-29.392,23.928c-3.262,2.98-3.49,8.04-0.51,11.302    c0.08,0.088,0.162,0.174,0.246,0.258l24.16,24.152l-8.688,8.648l-24.16-24.16c-1.53-1.567-3.651-2.416-5.84-2.336    c-2.184,0.048-4.254,0.988-5.728,2.6c-8.523,9.324-16.494,19.138-23.872,29.392c-2.299,3.174-1.96,7.546,0.8,10.328l21.488,21.488    l-8.688,8.688l-17.224-17.224c-1.751-1.752-4.215-2.594-6.672-2.28c-2.458,0.312-4.632,1.745-5.888,3.88l-1.904,3.2    c-1.456,2.4-2.904,4.8-4.248,7.312l-5.472,10.152c-5.071,9.325-3.368,20.878,4.176,28.344l17.92,17.928L31.994,398.852    l-2.344-2.344c-3.124-3.123-8.188-3.123-11.312,0l-6.072,6.072c-16.37,16.391-16.353,42.948,0.038,59.318    c7.861,7.851,18.516,12.263,29.626,12.266c11.13,0.039,21.812-4.384,29.656-12.28l6.064-6.056    c3.126-3.122,3.129-8.188,0.006-11.314c-0.002-0.002-0.004-0.004-0.006-0.006l-2.344-2.344l196.688-196.688l17.92,17.928    c7.472,7.54,19.028,9.236,28.352,4.16l10.16-5.464c2.504-1.352,4.936-2.816,7.368-4.28l3.136-1.888    c3.806-2.243,5.074-7.148,2.83-10.954c-0.342-0.58-0.755-1.114-1.23-1.59l-17.224-17.224l8.688-8.688l21.488,21.488    c2.781,2.756,7.148,3.095,10.32,0.8c10.262-7.391,20.079-15.381,29.4-23.928c3.262-2.98,3.49-8.04,0.51-11.302    c-0.08-0.088-0.162-0.174-0.246-0.258l-24.16-24.152l8.688-8.688l24.16,24.152c1.5,1.5,3.534,2.344,5.656,2.344h0.184    c2.184-0.048,4.254-0.988,5.728-2.6c8.524-9.309,16.495-19.11,23.872-29.352c2.299-3.174,1.96-7.546-0.8-10.328l-21.488-21.488    l8.688-8.688L441.21,142.7c1.5,1.5,3.534,2.344,5.656,2.344c0.34-0.002,0.679-0.023,1.016-0.064    c2.458-0.312,4.632-1.745,5.888-3.88l1.944-3.248c1.448-2.4,2.88-4.8,4.216-7.264l5.472-10.152    C470.473,111.112,468.771,99.558,461.226,92.092z M60.266,450.572c-10.131,10.129-26.555,10.127-36.684-0.004    s-10.127-26.555,0.004-36.684l0.408-0.408l36.688,36.688L60.266,450.572z M63.994,430.852l-20.688-20.688l196.688-196.688    l20.688,20.688L63.994,430.852z M320.858,248.076l-10.144,5.464c-3.113,1.683-6.963,1.12-9.464-1.384l-79.152-79.2    c-2.508-2.504-3.082-6.353-1.416-9.48l5.472-10.112c0.192-0.368,0.384-0.728,0.592-1.088l95.2,95.2L320.858,248.076z     M259.306,162.164l8.688-8.688l52.688,52.688l-8.688,8.688L259.306,162.164z M376.162,209.636    c-5.333,4.624-10.744,9.008-16.232,13.152l-108.552-108.56c4.144-5.488,8.523-10.896,13.136-16.224L376.162,209.636z     M305.306,116.164l8.688-8.688l52.688,52.688l-8.688,8.688L305.306,116.164z M420.61,162.1    c-4.133,5.488-8.512,10.896-13.136,16.224L295.826,66.692c5.339-4.619,10.749-9.003,16.232-13.152L420.61,162.1z M351.306,70.164    l8.688-8.688l52.688,52.688l-8.688,8.688L351.306,70.164z M451.346,112.884l-5.472,10.152c-0.192,0.368-0.392,0.728-0.6,1.096    l-95.2-95.2l1.12-0.616l10.144-5.464c3.113-1.683,6.963-1.12,9.464,1.384l79.152,79.2    C452.439,105.94,453.003,109.77,451.346,112.884z" data-original="#000000" class="active-path" fill="#000000"/>
	</g>
</g><g>
	<g>
		<path d="M463.994,202.164v176c0,8.837-7.163,16-16,16s-16-7.163-16-16v-32c0-17.673-14.327-32-32-32c-17.673,0-32,14.327-32,32v96    c0,8.837-7.163,16-16,16s-16-7.163-16-16v-152h-16v152c0,17.673,14.327,32,32,32c17.673,0,32-14.327,32-32v-96    c0-8.837,7.163-16,16-16s16,7.163,16,16v32c0,17.673,14.327,32,32,32c17.673,0,32-14.327,32-32v-176H463.994z" data-original="#000000" class="active-path" fill="#000000"/>
	</g>
</g><g>
	<g>
		<path d="M431.994,202.164v56c0,8.837-7.163,16-16,16s-16-7.163-16-16v-8h-16v8c0,17.673,14.327,32,32,32c17.673,0,32-14.327,32-32    v-56H431.994z" data-original="#000000" class="active-path" fill="#000000"/>
	</g>
</g></g> </svg>
