<?xml version="1.0"?>
<svg xmlns="http://www.w3.org/2000/svg" xmlns:xlink="http://www.w3.org/1999/xlink" version="1.1" id="Capa_1" x="0px" y="0px" viewBox="0 0 512 512" style="enable-background:new 0 0 512 512;" xml:space="preserve" width="512px" height="512px" class="hovered-paths"><g><g>
	<g>
		<path d="M349.208,131.146C330.646,117.969,320,99.042,320,79.208V64c5.896,0,10.667-4.771,10.667-10.667V10.667    C330.667,4.771,325.896,0,320,0H192c-5.896,0-10.667,4.771-10.667,10.667v42.667C181.333,59.229,186.104,64,192,64v15.208    c0,19.833-10.646,38.76-29.208,51.938C141,146.594,128,171.76,128,198.458v270.875C128,492.865,147.146,512,170.667,512h170.667    C364.854,512,384,492.865,384,469.333V198.458C384,171.76,371,146.594,349.208,131.146z M202.667,21.333h106.667v21.333H202.667    V21.333z M362.667,469.333c0,11.76-9.563,21.333-21.333,21.333H170.667c-11.771,0-21.333-9.573-21.333-21.333V202.786    c50.408,0.605,77.031,5.328,104.75,10.37c27.454,4.995,56.111,10.086,108.583,10.719V469.333z M362.667,202.547    c-50.408-0.605-77.031-5.328-104.75-10.37c-26.99-4.91-55.126-9.917-105.914-10.688c3.818-13.117,11.736-24.867,23.122-32.948    c24.292-17.229,38.208-42.5,38.208-69.333V64h85.333v15.208c0,26.833,13.917,52.104,38.208,69.333    c16.146,11.458,25.792,30.115,25.792,49.917V202.547z" data-original="#000000" class="hovered-path active-path" data-old_color="#000000" fill="#FFFFFF"/>
	</g>
</g></g> </svg>
