<?xml version="1.0"?>
<svg xmlns="http://www.w3.org/2000/svg" id="Capa_1" enable-background="new 0 0 512 512" height="512px" viewBox="0 0 512 512" width="512px"><g><path d="m437.02 74.98c-48.353-48.351-112.639-74.98-181.02-74.98-68.38 0-132.667 26.629-181.02 74.98-48.351 48.353-74.98 112.64-74.98 181.02 0 77.798 34.768 150.462 95.389 199.36 3.229 2.605 7.96 2.101 10.567-1.131 2.606-3.23 2.099-7.961-1.131-10.567-57.066-46.03-89.796-114.431-89.796-187.662 0-64.366 25.065-124.879 70.579-170.392 45.513-45.514 106.026-70.579 170.392-70.579s124.879 25.065 170.392 70.579c45.513 45.513 70.578 106.026 70.578 170.392s-25.066 124.879-70.578 170.392c-45.513 45.514-106.026 70.579-170.392 70.579-44.842 0-88.598-12.4-126.54-35.858-3.53-2.184-8.161-1.09-10.344 2.439-2.182 3.53-1.09 8.161 2.44 10.344 40.318 24.928 86.808 38.104 134.444 38.104 68.381 0 132.667-26.629 181.02-74.98 48.352-48.353 74.98-112.64 74.98-181.02s-26.628-132.667-74.98-181.02z" data-original="#000000" class="active-path" fill="#000000"/><path d="m256 57.59c4.151 0 7.515-3.365 7.515-7.515s-3.364-7.515-7.515-7.515c-48.214 0-93.711 15.689-131.574 45.37-3.495 2.738-3.819 8.086-.678 11.228l289.094 289.094c3.142 3.141 8.488 2.819 11.228-.678 29.681-37.863 45.37-83.361 45.37-131.574 0-51.568-18.639-101.353-52.483-140.181-33.514-38.449-79.621-63.665-129.829-71.004-4.11-.603-7.923 2.242-8.522 6.349-.601 4.106 2.242 7.922 6.348 8.523 46.66 6.82 89.516 30.262 120.673 66.008 29.473 33.813 46.539 76.567 48.577 121.251h-76.829c-7.424-8.143-31.862-34.271-60.539-57.673-3.216-2.627-7.951-2.144-10.573 1.07-2.624 3.216-2.145 7.95 1.07 10.573 19.978 16.304 38.172 34.343 49.412 46.029h-63.955l-78.134-78.134c8.252-3.507 15.493-5.285 21.601-5.285 11.972 0 27.951 6.65 47.495 19.764 3.674 2.468 8.814 1.141 10.855-2.773 1.747-3.35.653-7.603-2.481-9.706-22.064-14.806-40.861-22.314-55.868-22.314-9.521 0-20.586 3.017-32.948 8.967l-62.811-62.81c33.78-24.279 73.532-37.064 115.501-37.064zm161.347 313.912-47.381-47.381c23.93-13.663 51.004-20.897 78.855-20.974-5.93 24.465-16.517 47.544-31.474 68.355zm36.968-109.528c-.257 8.831-1.081 17.555-2.464 26.136h-2.579c-32.015 0-63.12 8.649-90.292 25.025l-51.161-51.161z" data-original="#000000" class="active-path" fill="#000000"/><path d="m93.389 121.565c-2.147.13-4.135 1.173-5.462 2.865-29.679 37.862-45.367 83.358-45.367 131.57 0 117.691 95.749 213.44 213.44 213.44 48.211 0 93.707-15.688 131.57-45.367 3.494-2.739 3.82-8.087.678-11.228l-289.093-289.093c-1.521-1.521-3.619-2.315-5.766-2.187zm162.611 332.845c-109.404 0-198.411-89.006-198.411-198.41 0-41.967 12.785-81.718 37.061-115.499l54.341 54.341c-25.733 21.839-47.014 44.601-53.854 52.102h-3.352c-5.759 0-11.172 2.814-14.478 7.528-3.304 4.711-4.107 10.754-2.148 16.165 4.675 12.911 14.291 31.992 33.547 49.564 22.805 20.812 53.298 34.298 90.63 40.085 13.857 2.148 27.503 3.22 40.896 3.22 23.396-.001 46.017-3.273 67.622-9.801l63.644 63.645c-33.781 24.276-73.531 37.06-115.498 37.06zm-54.907-207.465h-85.325c10.195-10.598 26.111-26.418 43.89-41.435zm15.03 15.029 79.54 79.54c-29.569 7.691-61.134 9.017-94.025 3.919-34.36-5.326-62.218-17.55-82.801-36.334-16.993-15.507-25.447-32.258-29.547-43.58-.619-1.711.683-3.546 2.495-3.546h124.338z" data-original="#000000" class="active-path" fill="#000000"/></g> </svg>
