<?xml version="1.0"?>
<svg xmlns="http://www.w3.org/2000/svg" xmlns:xlink="http://www.w3.org/1999/xlink" version="1.1" id="Capa_1" x="0px" y="0px" viewBox="0 0 511.982 511.982" style="enable-background:new 0 0 511.982 511.982;" xml:space="preserve" width="512px" height="512px"><g><g>
	<g>
		<path d="M319.779,313.798l-25.6-110.931c-0.896-3.874-4.343-6.613-8.32-6.613H183.461c-3.977,0-7.424,2.739-8.32,6.613    l-25.6,110.931c-0.137,0.631-0.213,1.28-0.213,1.92v187.73c0,4.719,3.823,8.533,8.533,8.533h153.597    c4.71,0,8.533-3.814,8.533-8.533v-187.73C319.992,315.07,319.924,314.421,319.779,313.798z M302.926,494.915H166.395V316.7    l23.85-103.371h88.822L302.926,316.7V494.915z" data-original="#000000" class="active-path" data-old_color="#000000" fill="#FFFFFF"/>
	</g>
</g><g>
	<g>
		<path d="M234.66,110.922c-32.938,0-59.732,26.794-59.732,59.732v34.133c0,4.71,3.823,8.533,8.533,8.533h102.398    c4.71,0,8.533-3.814,8.533-8.533v-34.133C294.392,137.716,267.59,110.922,234.66,110.922z M277.326,196.254h-85.332v-25.6    c0-23.526,19.14-42.666,42.666-42.666s42.666,19.14,42.666,42.666V196.254z" data-original="#000000" class="active-path" data-old_color="#000000" fill="#FFFFFF"/>
	</g>
</g><g>
	<g>
		<path d="M210.929,133.321l13.329-10.658l-68.266-85.332c-2.884-3.61-8.098-4.258-11.784-1.493l-34.133,25.6    c-1.843,1.382-3.055,3.456-3.345,5.751c-0.29,2.287,0.358,4.599,1.8,6.4l68.266,85.332l13.32-10.658l-62.762-78.454l20.471-15.36    L210.929,133.321z" data-original="#000000" class="active-path" data-old_color="#000000" fill="#FFFFFF"/>
	</g>
</g><g>
	<g>
		<path d="M403.609,250.849l-24.84-33.117l-33.698-92.67c-0.708-1.954-2.108-3.584-3.934-4.574l-75.16-40.951    c-12.057-6.605-27.306-2.185-33.945,9.89c-1.024,1.86-1.809,3.849-2.381,6.144c-2.62,11.708,3.115,23.5,13.952,28.672    c0.068,0.034,0.145,0.068,0.213,0.102l60.944,27.067l41.394,107.638c1.271,3.294,4.437,5.47,7.97,5.47h42.666    c3.234,0,6.178-1.818,7.629-4.736C405.862,256.891,405.554,253.435,403.609,250.849z M359.979,247.453L319.42,141.991    c-0.811-2.108-2.432-3.814-4.497-4.736l-64.05-28.441c-3.55-1.741-5.427-5.632-4.616-9.284c0.171-0.666,0.41-1.297,0.734-1.877    c2.099-3.84,6.938-5.256,10.803-3.132l72.344,39.423l33.023,90.827c0.29,0.785,0.683,1.527,1.195,2.202l15.36,20.48H359.979z" data-original="#000000" class="active-path" data-old_color="#000000" fill="#FFFFFF"/>
	</g>
</g><g>
	<g>
		<path d="M345.481,32.724c-0.299-1.775-1.161-3.413-2.44-4.668l-26.112-25.6c-1.553-1.519-3.618-2.398-5.786-2.441    c-5.299-0.171-10.735,1.041-15.565,3.362c-8.217,3.951-14.396,10.871-17.416,19.473c-2.44,6.972-2.568,14.378-0.418,21.307    l-24.559,36.411l14.148,9.54l27.05-40.106c1.69-2.517,1.929-5.743,0.614-8.474c-1.98-4.104-2.244-8.738-0.734-13.039    s4.608-7.765,8.712-9.736c1.485-0.717,3.08-1.212,4.702-1.476l21.171,20.761c-0.017,2.722-0.87,5.214-2.509,7.304    c-2.654,3.371-7.304,5.461-13.098,5.871c-2.654,0.188-5.069,1.604-6.528,3.831l-27.989,42.666l14.268,9.361l25.83-39.347    c8.729-1.51,16.068-5.623,20.94-11.827C344.875,49.406,346.906,41.171,345.481,32.724z" data-original="#000000" class="active-path" data-old_color="#000000" fill="#FFFFFF"/>
	</g>
</g><g>
	<g>
		<path d="M327.646,17.936c-3.336-3.336-8.729-3.336-12.066,0L305.426,28.09c-3.336,3.336-3.336,8.729,0,12.066    c1.664,1.664,3.849,2.5,6.033,2.5c2.184,0,4.36-0.828,6.033-2.5l10.154-10.154C330.983,26.665,330.983,21.272,327.646,17.936z" data-original="#000000" class="active-path" data-old_color="#000000" fill="#FFFFFF"/>
	</g>
</g><g>
	<g>
		<rect x="226.127" y="307.177" width="85.332" height="17.066" data-original="#000000" class="active-path" data-old_color="#000000" fill="#FFFFFF"/>
	</g>
</g><g>
	<g>
		<rect x="191.994" y="307.177" width="17.066" height="17.066" data-original="#000000" class="active-path" data-old_color="#000000" fill="#FFFFFF"/>
	</g>
</g></g> </svg>
